<svg xmlns="http://www.w3.org/2000/svg" version="1.1" viewBox="0 0 1376 768" preserveAspectRatio="xMidYMid meet" fill="none" aria-hidden="true">
  <path d="M0 0 C2.23928583 -0.00407446 4.47856965 -0.00942121 6.71784973 -0.01593018 C12.75096803 -0.02950637 18.78393093 -0.02434525 24.81705165 -0.01479292 C31.16136866 -0.00714478 37.50567325 -0.01425623 43.84999084 -0.01895142 C55.181246 -0.02474211 66.512423 -0.0154763 77.84366251 -0.0001734 C88.07972894 0.01322345 98.31569323 0.01090039 108.55175781 -0.00292969 C120.48873918 -0.01905075 132.42565873 -0.02492483 144.36265475 -0.0160929 C150.663074 -0.01144135 156.9634232 -0.01072155 163.26383781 -0.02070236 C169.19101188 -0.02943762 175.11799516 -0.02323152 181.04514885 -0.00601959 C183.2064889 -0.00208934 185.36784531 -0.00312851 187.52917862 -0.00980759 C203.41002604 -0.05431798 219.22787373 0.70251793 234.36743164 6.01318359 C235.45954956 6.38733398 235.45954956 6.38733398 236.57373047 6.76904297 C250.40107754 11.75531795 262.016767 19.18909579 271.49633789 30.39990234 C273.13942751 32.27089254 274.85984097 33.94190862 276.67993164 35.63818359 C280.62267362 39.48324503 283.42262972 43.97754062 286.34790039 48.61865234 C288.09641787 51.3863701 288.09641787 51.3863701 290.26196289 53.29052734 C292.90814735 56.09329077 294.26505584 59.25807811 295.74243164 62.76318359 C296.04358887 63.46564209 296.34474609 64.16810059 296.6550293 64.8918457 C301.63776642 76.81530245 304.39634383 88.60847674 304.38287354 101.55027771 C304.38733022 102.90213853 304.38733022 102.90213853 304.39187694 104.28130966 C304.40052288 107.29016974 304.40206872 110.29898983 304.40356445 113.30786133 C304.40819565 115.47009872 304.41322072 117.63233529 304.41860962 119.79457092 C304.43170933 125.66281185 304.43817422 131.53104135 304.44262028 137.39929461 C304.44555583 141.07076911 304.44966162 144.74224052 304.45412445 148.41371346 C304.467795 159.91577115 304.47746297 171.41782175 304.48132634 182.91988701 C304.4858016 196.16887053 304.5033267 209.4177506 304.53232694 222.66670269 C304.55399671 232.92518524 304.5640335 243.1836388 304.56536746 253.44214398 C304.56641199 259.56045804 304.57224429 265.67867481 304.59018707 271.79696465 C304.60675874 277.55982574 304.60877936 283.32251736 304.60004807 289.08539391 C304.59928245 291.18952135 304.60355686 293.29365824 304.61350632 295.3977623 C304.73635803 323.01951493 298.79933264 348.04077117 280.24243164 369.38818359 C279.57727539 370.19771484 278.91211914 371.00724609 278.22680664 371.84130859 C260.48465678 392.73761842 234.40284667 404.95125916 207.24243164 407.38818359 C199.87705016 407.75861095 192.4949317 407.67243841 185.12255859 407.6628418 C182.90356781 407.66719574 180.68457852 407.67238115 178.46559143 407.67832947 C172.46945903 407.69165906 166.47338989 407.69230475 160.47724557 407.68976617 C155.45543644 407.68869208 150.43363988 407.69359112 145.41183347 407.69837159 C132.87745257 407.71007836 120.34310218 407.70925373 107.80872115 407.70281478 C96.96437395 407.69765135 86.12011674 407.70889093 75.27578733 407.727913 C64.09946178 407.74736471 52.92316887 407.75524417 41.74682397 407.75178975 C35.48881555 407.74998505 29.2308895 407.75253109 22.97289467 407.76650429 C17.08189775 407.77916701 11.19107954 407.77705933 5.30008507 407.7640934 C3.15164502 407.76174613 1.00319206 407.76439495 -1.14523315 407.77271652 C-30.35310043 407.87759223 -58.34468973 402.43977449 -80.75756836 382.38818359 C-81.59674805 381.67919922 -82.43592773 380.97021484 -83.30053711 380.23974609 C-101.89744516 364.20307803 -114.42819092 340.75356927 -117.75756836 316.38818359 C-117.89864494 313.35217771 -117.89687009 310.32033877 -117.89128113 307.28146362 C-117.89354668 306.37417169 -117.89581224 305.46687975 -117.89814645 304.53209412 C-117.90446801 301.49696901 -117.90365826 298.46188877 -117.90283203 295.42675781 C-117.90582473 293.24832603 -117.90922752 291.06989478 -117.91300964 288.89146423 C-117.92184409 282.97591037 -117.92418757 277.06037097 -117.92482543 271.14481115 C-117.92553643 267.4464042 -117.92767174 263.74800092 -117.93032265 260.04959488 C-117.9400534 246.47230636 -117.94358773 232.89502923 -117.94274721 219.31773748 C-117.942316 207.96406604 -117.95368969 196.61043768 -117.96861476 185.25677669 C-117.98170827 174.92703983 -117.9870542 164.59731762 -117.98641568 154.26757252 C-117.98616116 148.10244678 -117.98898691 141.93736096 -117.99959373 135.7722435 C-118.00930477 129.96921645 -118.00933329 124.16626724 -118.0020771 118.36323738 C-118.00103489 116.23969598 -118.00337248 114.11614965 -118.00943756 111.99261665 C-118.04583465 98.36016414 -117.5790523 85.60160128 -113.13256836 72.57568359 C-112.87314453 71.81360596 -112.6137207 71.05152832 -112.34643555 70.26635742 C-102.99216243 43.84960434 -83.6137586 23.00269573 -58.66870117 10.29931641 C-55.32668589 8.7060102 -51.92072722 7.34795459 -48.44506836 6.07568359 C-47.83123291 5.84534424 -47.21739746 5.61500488 -46.58496094 5.37768555 C-31.42518575 0.1807567 -15.83521149 -0.04888456 0 0 Z" fill="#5E64A9" transform="translate(594.757568359375,180.61181640625)"/>
  <path d="M0 0 C1.81850495 -0.02410654 3.63691891 -0.05709838 5.45507812 -0.09997559 C26.12210259 -0.53662316 43.64478055 4.8002901 58.89746094 19.19366455 C59.6825 19.96323486 60.46753906 20.73280518 61.27636719 21.5256958 C61.98921875 22.20245361 62.70207031 22.87921143 63.43652344 23.57647705 C71.02966365 31.3451812 78.27636719 44.53366473 78.27636719 55.5256958 C78.93636719 55.5256958 79.59636719 55.5256958 80.27636719 55.5256958 C81.50717227 57.98730598 81.39680696 59.59066573 81.38989258 62.34259033 C81.38981705 63.34347687 81.38974152 64.3443634 81.3896637 65.37557983 C81.38450241 66.45894623 81.37934113 67.54231262 81.37402344 68.6585083 C81.37190102 70.31896683 81.37190102 70.31896683 81.36973572 72.01296997 C81.36412491 75.55890573 81.35157055 79.10477903 81.33886719 82.6506958 C81.33385358 85.05043447 81.32929043 87.45017413 81.32519531 89.84991455 C81.31415197 95.74186305 81.29740329 101.63377497 81.27636719 107.5256958 C77.27636719 107.5256958 77.27636719 107.5256958 75.12792969 105.80303955 C74.39316406 105.03089111 73.65839844 104.25874268 72.90136719 103.4631958 C71.80695313 102.33204346 71.80695313 102.33204346 70.69042969 101.17803955 C69.39672317 99.75663709 68.11160509 98.32559645 66.88989258 96.84185791 C63.44101586 92.65519867 59.8785025 89.35625964 55.46386719 86.2131958 C54.81426025 85.74736084 54.16465332 85.28152588 53.49536133 84.80157471 C12.85218631 56.13565496 -37.09747556 47.54168996 -85.80810547 55.88262939 C-89.23240894 56.48525009 -92.64620091 57.12947238 -96.05566406 57.81085205 C-99.29354074 58.44187594 -102.52499901 58.97119564 -105.78613281 59.4631958 C-132.53695665 63.93971693 -158.39018181 76.78907117 -174.92675781 98.9085083 C-191.72317894 123.37286082 -200.80215567 150.3501624 -195.59619141 180.11407471 C-191.71570585 199.89731557 -184.11399397 217.26747629 -170.72363281 232.5256958 C-169.53539508 233.92090117 -168.34778445 235.31664117 -167.16113281 236.7131958 C-166.35675781 237.6413208 -165.55238281 238.5694458 -164.72363281 239.5256958 C-197.85894866 234.09835958 -227.37638981 216.3279367 -247.41113281 189.2756958 C-251.33510433 183.79479829 -255.0022606 178.13960025 -258.53613281 172.4006958 C-258.98754639 171.6901001 -259.43895996 170.97950439 -259.90405273 170.24737549 C-262.86599274 165.26574143 -262.86599274 165.26574143 -262.23144531 161.96710205 C-261.73386719 161.16143799 -261.23628906 160.35577393 -260.72363281 159.5256958 C-260.13710938 158.44417236 -259.55058594 157.36264893 -258.94628906 156.24835205 C-251.8774262 144.1087095 -243.51755567 133.31832882 -233.98925781 123.0022583 C-232.10531419 120.94291303 -230.27681578 118.85350638 -228.45410156 116.74053955 C-224.73106549 112.47483039 -220.80014059 108.45397885 -216.78613281 104.4631958 C-215.78936523 103.46062744 -215.78936523 103.46062744 -214.77246094 102.43780518 C-210.81948102 98.4924935 -206.76168157 94.73368721 -202.51367188 91.10748291 C-200.72499033 89.52689539 -199.06375947 87.87206119 -197.41113281 86.1506958 C-193.687633 82.35934177 -189.59544816 79.09070274 -185.45800781 75.76397705 C-183.09694203 73.83127606 -180.84245989 71.8412343 -178.59863281 69.7756958 C-171.6830476 63.5652776 -164.16184427 58.08665259 -156.72363281 52.5256958 C-156.1185791 52.06872314 -155.51352539 51.61175049 -154.89013672 51.14093018 C-145.70458941 44.22487685 -136.02252442 38.38571437 -125.98535156 32.78790283 C-123.94332134 31.64829831 -121.91126474 30.49271182 -119.87988281 29.33428955 C-109.89879664 23.73389591 -99.43931478 19.50817677 -88.72363281 15.5256958 C-87.62027588 15.11190674 -87.62027588 15.11190674 -86.49462891 14.6897583 C-58.57924597 4.36917747 -29.61722973 0.3686712 0 0 Z" fill="#F1F1F1" transform="translate(779.7236328125,220.47430419921875)"/>
</svg>
